<svg width="24" height="24" viewBox="0 0 24 24" fill="none" xmlns="http://www.w3.org/2000/svg">
<path d="M12 0L12.5983 7.45562L15.1058 0.40889L13.7541 7.76531L18 1.6077L14.7903 8.36359L20.4853 3.51472L15.6364 9.20969L22.3923 6L16.2347 10.2459L23.5911 8.89417L16.5444 11.4017L24 12L16.5444 12.5983L23.5911 15.1058L16.2347 13.7541L22.3923 18L15.6364 14.7903L20.4853 20.4853L14.7903 15.6364L18 22.3923L13.7541 16.2347L15.1058 23.5911L12.5983 16.5444L12 24L11.4017 16.5444L8.89417 23.5911L10.2459 16.2347L6 22.3923L9.20969 15.6364L3.51472 20.4853L8.36359 14.7903L1.6077 18L7.76531 13.7541L0.40889 15.1058L7.45562 12.5983L0 12L7.45562 11.4017L0.40889 8.89417L7.76531 10.2459L1.6077 6L8.36359 9.20969L3.51472 3.51472L9.20969 8.36359L6 1.6077L10.2459 7.76531L8.89417 0.40889L11.4017 7.45562L12 0Z" fill="#264BEB"/>
</svg>
