<svg width="192" height="33" viewBox="0 0 192 33" fill="none" xmlns="http://www.w3.org/2000/svg">
<path d="M16 0.770996L18.3388 11.1247L27.3137 5.45729L21.6462 14.4322L32 16.771L21.6462 19.1097L27.3137 28.0847L18.3388 22.4172L16 32.771L13.6612 22.4172L4.68629 28.0847L10.3538 19.1097L0 16.771L10.3538 14.4322L4.68629 5.45729L13.6612 11.1247L16 0.770996Z" fill="#264BEB"/>
<path d="M56 0.770996L58.3388 11.1247L67.3137 5.45729L61.6462 14.4322L72 16.771L61.6462 19.1097L67.3137 28.0847L58.3388 22.4172L56 32.771L53.6612 22.4172L44.6863 28.0847L50.3538 19.1097L40 16.771L50.3538 14.4322L44.6863 5.45729L53.6612 11.1247L56 0.770996Z" fill="#264BEB"/>
<path d="M96 0.770996L98.3388 11.1247L107.314 5.45729L101.646 14.4322L112 16.771L101.646 19.1097L107.314 28.0847L98.3388 22.4172L96 32.771L93.6612 22.4172L84.6863 28.0847L90.3538 19.1097L80 16.771L90.3538 14.4322L84.6863 5.45729L93.6612 11.1247L96 0.770996Z" fill="#264BEB"/>
<path d="M136 0.770996L138.339 11.1247L147.314 5.45729L141.646 14.4322L152 16.771L141.646 19.1097L147.314 28.0847L138.339 22.4172L136 32.771L133.661 22.4172L124.686 28.0847L130.354 19.1097L120 16.771L130.354 14.4322L124.686 5.45729L133.661 11.1247L136 0.770996Z" fill="#264BEB"/>
<path d="M176 0.770996L178.339 11.1247L187.314 5.45729L181.646 14.4322L192 16.771L181.646 19.1097L187.314 28.0847L178.339 22.4172L176 32.771L173.661 22.4172L164.686 28.0847L170.354 19.1097L160 16.771L170.354 14.4322L164.686 5.45729L173.661 11.1247L176 0.770996Z" fill="#264BEB"/>
</svg>
